<svg width="280" height="326" viewBox="0 0 280 326" fill="none" xmlns="http://www.w3.org/2000/svg">
<path d="M0 324.923V0H114.444C150.004 0 179.846 7.76315 204.778 23.7034C229.302 39.2346 248.102 59.6702 260.366 84.6009C272.626 109.532 279.167 135.69 279.167 162.666C279.167 190.051 273.035 216.205 260.366 240.731C248.102 265.662 229.302 285.688 204.778 301.628C180.25 317.16 150.004 325.332 114.444 325.332H21.2552C15.1231 324.923 0.409128 324.923 0 324.923Z" fill="#080808"/>
<path d="M46.1877 73.1609H162.268C172.078 73.1609 180.25 81.3331 180.25 91.1418C180.25 100.95 172.078 109.128 162.268 109.128H46.1877V73.1609Z" fill="#3DDC97"/>
<path d="M46.1877 215.391H188.428C198.237 215.391 206.41 223.563 206.41 233.372C206.41 243.181 198.237 251.358 188.428 251.358H46.1877V215.391Z" fill="#F12A1F"/>
<path d="M46.1877 144.276H126.708C136.517 144.276 144.69 152.448 144.69 162.257C144.69 172.066 136.517 180.243 126.708 180.243H46.1877V144.276Z" fill="#FFB400"/>
</svg>
