<svg width="199" height="22" viewBox="0 0 199 22" fill="none" xmlns="http://www.w3.org/2000/svg">
<g clip-path="url(#clip0)">
<path fill-rule="evenodd" clip-rule="evenodd" d="M2.91492 4.6174H10.2418C10.8607 4.6174 11.3763 5.13371 11.3763 5.75251C11.3763 6.37137 10.8607 6.88765 10.2418 6.88765H2.91492V4.6174ZM2.91492 13.5944H11.8926C12.5114 13.5944 13.0278 14.11 13.0278 14.7296C13.0278 15.3484 12.5114 15.8639 11.8926 15.8639H2.91492V13.5944ZM0 20.5077V0H7.22285C9.46762 0 11.3506 0.489929 12.9245 1.49617C14.4721 2.47678 15.6585 3.76643 16.4327 5.33948C17.2069 6.91328 17.6192 8.564 17.6192 10.2667C17.6192 11.995 17.2325 13.6457 16.4327 15.1939C15.6585 16.7669 14.4721 18.0309 12.9245 19.0371C11.3763 20.017 9.46762 20.5333 7.22285 20.5333H1.34175C0.954303 20.5077 0.025629 20.5077 0 20.5077ZM2.91492 9.10591H7.99698C8.6166 9.10591 9.13221 9.62148 9.13221 10.2411C9.13221 10.8599 8.6166 11.3761 7.99698 11.3761H2.91492V9.10591Z" fill="white"/>
<path d="M36.0166 1.30679V16.7736H34.3223L34.2495 14.7911C33.8174 15.5116 33.2407 16.0523 32.5193 16.4494C31.7979 16.8096 31.0046 17.0261 30.1754 17.0261C28.553 17.0261 27.2549 16.5212 26.2092 15.5116C25.1644 14.5027 24.6595 13.1329 24.6595 11.3659C24.6595 9.59894 25.1644 8.19314 26.2092 7.2203C27.2549 6.21061 28.553 5.74168 30.1754 5.74168C31.0046 5.74168 31.7979 5.92225 32.5552 6.31836C33.3125 6.71546 33.8893 7.2203 34.2495 7.94069V1.30679H36.0166ZM30.2842 7.32805C29.1657 7.32805 28.2646 7.6883 27.5433 8.37371C26.8228 9.05818 26.4616 10.032 26.4616 11.294C26.4616 12.5193 26.8228 13.4931 27.5433 14.1776C28.2646 14.8989 29.2025 15.2232 30.2842 15.2232C31.4017 15.2232 32.3028 14.863 33.0601 14.1057C33.7815 13.3853 34.1776 12.4115 34.1776 11.2213C34.1776 10.0679 33.8174 9.13095 33.0601 8.40962C32.2668 7.72421 31.3658 7.32805 30.2842 7.32805Z" fill="white"/>
<path d="M49.069 15.0435C48.5282 15.692 47.8427 16.1609 46.9776 16.4852C46.1125 16.8095 45.2464 16.99 44.3454 16.99C42.6511 16.99 41.2452 16.4852 40.1995 15.4396C39.1538 14.394 38.613 13.0241 38.613 11.2939C38.613 9.6357 39.1538 8.30173 40.1995 7.22021C41.2452 6.1377 42.6152 5.63379 44.2735 5.63379C46.0397 5.63379 47.4466 6.17455 48.4923 7.29204C49.537 8.40953 49.9341 9.95998 49.7535 12.0512H40.4879C40.5956 13.0241 40.9928 13.8172 41.7491 14.4299C42.4706 15.0435 43.3716 15.3318 44.4541 15.3318C45.1027 15.3318 45.7513 15.2231 46.4009 14.9706C47.0495 14.7182 47.5544 14.394 47.9146 13.9619L49.069 15.0435ZM48.0233 10.5367C47.9874 9.49105 47.6263 8.69789 46.9776 8.12116C46.329 7.54449 45.427 7.25612 44.3454 7.25612C43.3716 7.25612 42.5065 7.54449 41.786 8.12116C41.0646 8.69789 40.6316 9.49105 40.4879 10.5007L48.0233 10.5367Z" fill="white"/>
<path d="M62.0126 15.0435C61.4719 15.692 60.7866 16.1609 59.9213 16.4852C59.0561 16.8095 58.1909 16.99 57.2889 16.99C55.5947 16.99 54.1888 16.4852 53.1431 15.4396C52.0975 14.394 51.5566 13.0241 51.5566 11.2939C51.5566 9.6357 52.0975 8.30173 53.1431 7.22021C54.1888 6.1377 55.559 5.63379 57.2174 5.63379C58.9841 5.63379 60.39 6.17455 61.4362 7.29204C62.4818 8.40953 62.8778 9.95998 62.6979 12.0512H53.4315C53.5393 13.0241 53.9364 13.8172 54.6937 14.4299C55.4143 15.0435 56.3164 15.3318 57.3978 15.3318C58.0463 15.3318 58.6959 15.2231 59.3444 14.9706C59.9934 14.7182 60.4978 14.394 60.8592 13.9619L62.0126 15.0435ZM60.967 10.5367C60.9312 9.49105 60.5709 8.69789 59.9213 8.12116C59.2728 7.54449 58.3708 7.25612 57.2889 7.25612C56.3164 7.25612 55.4512 7.54449 54.7296 8.12116C54.0083 8.69789 53.5761 9.49105 53.4315 10.5007L60.967 10.5367Z" fill="white"/>
<path d="M65.1859 5.92221H66.9158L66.9889 8.01254C67.4207 7.2921 67.9977 6.71542 68.7551 6.31832C69.5125 5.92221 70.3057 5.70573 71.1709 5.70573C72.7572 5.74165 74.0553 6.28241 75.0652 7.2921C76.074 8.3377 76.5789 9.67167 76.5789 11.3299C76.5789 13.0241 76.074 14.394 75.0289 15.4396C73.9833 16.4852 72.6852 16.9901 71.0268 16.9901C70.1979 16.9901 69.4047 16.8095 68.6473 16.4493C67.8899 16.0891 67.3129 15.5115 66.9158 14.7911V21.893H65.1496V5.92221H65.1859ZM73.7308 14.2503C74.4513 13.5289 74.8127 12.5921 74.8127 11.3658C74.8127 10.1765 74.4513 9.2028 73.7308 8.51739C73.0097 7.83286 72.1087 7.47173 70.9542 7.47173C69.8007 7.47173 68.8998 7.83286 68.1781 8.59015C67.457 9.31054 67.1325 10.2484 67.1325 11.4018C67.1325 12.5193 67.4928 13.4571 68.2139 14.1775C68.9355 14.9348 69.8365 15.2959 70.9542 15.3318C72.1087 15.3318 73.0097 14.9707 73.7308 14.2503Z" fill="white"/>
<path d="M86.278 8.30182C85.4849 7.5805 84.475 7.25622 83.2127 7.25622C82.4195 7.25622 81.771 7.36402 81.2661 7.65233C80.7611 7.94069 80.5087 8.33774 80.5087 8.84258C80.5087 9.70768 81.447 10.2484 83.2127 10.4649C83.7176 10.5368 84.151 10.5727 84.475 10.6445C84.7995 10.7174 85.1967 10.8251 85.6647 10.9698C86.1334 11.1135 86.4937 11.294 86.7819 11.5465C87.0706 11.762 87.2868 12.0873 87.5035 12.4474C87.7202 12.8436 87.7917 13.2766 87.7917 13.8173C87.7917 14.863 87.3231 15.6561 86.4579 16.2329C85.5927 16.8096 84.5113 17.0979 83.2127 17.0979C81.0499 17.0979 79.4273 16.4134 78.3454 15.0436L79.3915 13.7814C80.2925 14.8989 81.5906 15.4756 83.2847 15.4756C84.0064 15.4756 84.6549 15.3319 85.1967 15.0795C85.7373 14.827 86.0256 14.3941 86.0619 13.7814C86.0619 13.2407 85.8452 12.8436 85.3045 12.5921C84.7638 12.3396 84.0779 12.1591 83.1054 12.0513C82.4916 11.9785 81.9509 11.8708 81.5185 11.762C81.0857 11.6542 80.6165 11.4737 80.1847 11.2581C79.7155 11.0416 79.3915 10.7174 79.1391 10.3562C78.8866 9.96007 78.7788 9.49114 78.7788 8.91447C78.7788 8.19314 78.9944 7.54458 79.463 7.07565C79.9322 6.57081 80.4729 6.21061 81.1214 6.03005C81.771 5.81351 82.4558 5.74168 83.2127 5.74168C84.9073 5.74168 86.278 6.21061 87.36 7.18345L86.278 8.30182Z" fill="white"/>
<path d="M91.1817 7.22021C92.2631 6.1377 93.5969 5.63379 95.2195 5.63379C96.8779 5.63379 98.2481 6.17455 99.2937 7.22021C100.339 8.26488 100.88 9.67161 100.88 11.3658C100.88 13.0241 100.339 14.3581 99.2937 15.4037C98.2123 16.4493 96.8779 16.99 95.2195 16.99C93.5969 16.99 92.2273 16.4493 91.1817 15.4037C90.0998 14.3581 89.5948 12.9881 89.5948 11.3658C89.5948 9.67161 90.0998 8.30173 91.1817 7.22021ZM98.0314 8.40953C97.3108 7.65223 96.373 7.25612 95.2553 7.25612C94.1382 7.25612 93.2003 7.61632 92.4798 8.37361C91.7581 9.13085 91.3979 10.1037 91.3979 11.2939C91.3979 12.4474 91.7581 13.3852 92.4798 14.1056C93.2003 14.8269 94.1382 15.2231 95.2553 15.2231C96.373 15.2231 97.3108 14.8629 98.0314 14.1056C98.753 13.3852 99.1501 12.4114 99.1501 11.2939C99.1133 10.1396 98.753 9.16677 98.0314 8.40953Z" fill="white"/>
<path d="M111.985 16.7736L111.913 15.0435C110.976 16.3047 109.714 16.9182 108.127 16.9542C106.722 16.9542 105.567 16.4853 104.702 15.5843C103.837 14.6824 103.404 13.4571 103.404 11.8707V5.84943H105.207V11.8707C105.207 12.9163 105.495 13.7455 106.072 14.3581C106.65 14.9707 107.479 15.26 108.488 15.26C109.461 15.26 110.291 14.8989 110.904 14.2144C111.517 13.529 111.841 12.6998 111.841 11.6902V5.84943H113.644V16.7736H111.985Z" fill="white"/>
<path d="M118.655 5.84942L118.8 7.47176C119.448 6.28238 120.566 5.66979 122.152 5.66979C123.127 5.63382 123.955 5.92219 124.677 6.49892L123.848 8.04937C123.271 7.65232 122.657 7.43579 121.937 7.43579C121.035 7.43579 120.278 7.761 119.665 8.33773C119.052 8.95032 118.728 9.70762 118.728 10.6805V16.7377H116.925V5.84942H118.655Z" fill="white"/>
<path d="M135.133 15.2959C134.016 16.4134 132.644 16.9901 131.059 16.9901C129.437 16.9901 128.102 16.4852 126.984 15.4755C125.903 14.4668 125.361 13.0959 125.361 11.3299C125.361 9.56297 125.903 8.19303 126.984 7.18334C128.065 6.17458 129.437 5.66974 131.059 5.66974C132.573 5.66974 133.907 6.2105 135.024 7.29207L133.871 8.48139C133.114 7.761 132.213 7.3639 131.095 7.3639C129.977 7.3639 129.039 7.72415 128.318 8.44548C127.561 9.1668 127.201 10.1037 127.201 11.294C127.201 12.5192 127.561 13.493 128.318 14.1775C129.075 14.8629 129.977 15.2231 131.095 15.2231C132.248 15.2231 133.186 14.827 133.942 14.0697L135.133 15.2959Z" fill="white"/>
<path d="M146.959 15.0435C146.418 15.692 145.733 16.1609 144.867 16.4852C144.003 16.8095 143.137 16.99 142.235 16.99C140.541 16.99 139.135 16.4852 138.09 15.4396C137.044 14.394 136.503 13.0241 136.503 11.2939C136.503 9.6357 137.044 8.30173 138.09 7.22021C139.135 6.1377 140.505 5.63379 142.163 5.63379C143.931 5.63379 145.337 6.17455 146.382 7.29204C147.428 8.40953 147.824 9.95998 147.643 12.0512H138.378C138.486 13.0241 138.883 13.8172 139.64 14.4299C140.36 15.0435 141.262 15.3318 142.344 15.3318C142.993 15.3318 143.642 15.2231 144.291 14.9706C144.939 14.7182 145.444 14.394 145.806 13.9619L146.959 15.0435ZM145.914 10.5367C145.877 9.49105 145.517 8.69789 144.867 8.12116C144.219 7.54449 143.317 7.25612 142.235 7.25612C141.262 7.25612 140.397 7.54449 139.676 8.12116C138.954 8.69789 138.522 9.49105 138.378 10.5007L145.914 10.5367Z" fill="white"/>
</g>
<path d="M158.415 16H155.119V5.81818H158.519C159.517 5.81818 160.374 6.02202 161.089 6.42969C161.805 6.83404 162.354 7.41572 162.735 8.17472C163.12 8.9304 163.312 9.83688 163.312 10.8942C163.312 11.9548 163.118 12.8662 162.73 13.6286C162.346 14.3909 161.789 14.9775 161.06 15.3885C160.33 15.7962 159.449 16 158.415 16ZM156.655 14.6577H158.33C159.106 14.6577 159.75 14.5118 160.264 14.2202C160.778 13.9252 161.162 13.4993 161.418 12.9425C161.673 12.3823 161.8 11.6996 161.8 10.8942C161.8 10.0954 161.673 9.41761 161.418 8.8608C161.166 8.30398 160.79 7.88139 160.289 7.59304C159.789 7.30469 159.167 7.16051 158.425 7.16051H156.655V14.6577ZM174.627 10.9091C174.627 11.9962 174.428 12.9309 174.03 13.7131C173.632 14.492 173.087 15.0919 172.394 15.5128C171.705 15.9304 170.921 16.1392 170.043 16.1392C169.161 16.1392 168.374 15.9304 167.681 15.5128C166.992 15.0919 166.448 14.4903 166.051 13.7081C165.653 12.9259 165.454 11.9929 165.454 10.9091C165.454 9.82197 165.653 8.88897 166.051 8.11008C166.448 7.32789 166.992 6.72798 167.681 6.31037C168.374 5.88944 169.161 5.67898 170.043 5.67898C170.921 5.67898 171.705 5.88944 172.394 6.31037C173.087 6.72798 173.632 7.32789 174.03 8.11008C174.428 8.88897 174.627 9.82197 174.627 10.9091ZM173.105 10.9091C173.105 10.0805 172.971 9.38281 172.703 8.81605C172.437 8.24598 172.073 7.8151 171.609 7.52344C171.148 7.22846 170.626 7.08097 170.043 7.08097C169.456 7.08097 168.932 7.22846 168.472 7.52344C168.011 7.8151 167.646 8.24598 167.378 8.81605C167.113 9.38281 166.98 10.0805 166.98 10.9091C166.98 11.7377 167.113 12.437 167.378 13.0071C167.646 13.5739 168.011 14.0047 168.472 14.2997C168.932 14.5914 169.456 14.7372 170.043 14.7372C170.626 14.7372 171.148 14.5914 171.609 14.2997C172.073 14.0047 172.437 13.5739 172.703 13.0071C172.971 12.437 173.105 11.7377 173.105 10.9091ZM185.559 9.12926H184.007C183.948 8.79782 183.837 8.50615 183.674 8.25426C183.512 8.00237 183.313 7.78859 183.078 7.61293C182.842 7.43726 182.579 7.30469 182.287 7.2152C181.999 7.12571 181.692 7.08097 181.368 7.08097C180.781 7.08097 180.256 7.22846 179.792 7.52344C179.331 7.81842 178.966 8.25095 178.698 8.82102C178.433 9.3911 178.3 10.0871 178.3 10.9091C178.3 11.7377 178.433 12.437 178.698 13.0071C178.966 13.5772 179.332 14.008 179.796 14.2997C180.261 14.5914 180.783 14.7372 181.363 14.7372C181.684 14.7372 181.989 14.6941 182.277 14.608C182.569 14.5185 182.832 14.3875 183.068 14.2152C183.303 14.0429 183.502 13.8324 183.664 13.5838C183.83 13.3319 183.944 13.0436 184.007 12.7188L185.559 12.7237C185.476 13.2242 185.315 13.6849 185.076 14.1058C184.841 14.5234 184.538 14.8847 184.167 15.1896C183.799 15.4912 183.378 15.7249 182.904 15.8906C182.43 16.0563 181.913 16.1392 181.353 16.1392C180.471 16.1392 179.685 15.9304 178.996 15.5128C178.307 15.0919 177.763 14.4903 177.365 13.7081C176.971 12.9259 176.774 11.9929 176.774 10.9091C176.774 9.82197 176.973 8.88897 177.37 8.11008C177.768 7.32789 178.312 6.72798 179.001 6.31037C179.69 5.88944 180.474 5.67898 181.353 5.67898C181.893 5.67898 182.397 5.75687 182.864 5.91264C183.335 6.0651 183.757 6.29048 184.132 6.58878C184.506 6.88376 184.816 7.24503 185.061 7.67258C185.307 8.09683 185.472 8.58239 185.559 9.12926ZM193.51 8.4929C193.457 8.02225 193.238 7.65767 192.854 7.39915C192.469 7.13731 191.985 7.00639 191.402 7.00639C190.985 7.00639 190.623 7.07268 190.318 7.20526C190.013 7.33452 189.776 7.51349 189.607 7.74219C189.442 7.96757 189.359 8.22443 189.359 8.51278C189.359 8.75473 189.415 8.96354 189.528 9.1392C189.644 9.31487 189.795 9.46236 189.98 9.58168C190.169 9.69768 190.371 9.79545 190.587 9.875C190.802 9.95123 191.009 10.0142 191.208 10.0639L192.203 10.3224C192.527 10.402 192.86 10.5097 193.202 10.6456C193.543 10.7815 193.86 10.9605 194.151 11.1825C194.443 11.4046 194.678 11.6797 194.857 12.0078C195.04 12.3359 195.131 12.7287 195.131 13.1861C195.131 13.7628 194.982 14.2749 194.683 14.7223C194.388 15.1697 193.959 15.5227 193.396 15.7812C192.836 16.0398 192.158 16.169 191.362 16.169C190.6 16.169 189.94 16.0481 189.384 15.8061C188.827 15.5642 188.391 15.2211 188.076 14.777C187.761 14.3295 187.587 13.7992 187.554 13.1861H189.095C189.125 13.554 189.244 13.8606 189.453 14.1058C189.665 14.3478 189.936 14.5284 190.264 14.6477C190.595 14.7637 190.958 14.8217 191.352 14.8217C191.787 14.8217 192.173 14.7538 192.511 14.6179C192.852 14.4787 193.121 14.2865 193.316 14.0412C193.512 13.7926 193.61 13.5026 193.61 13.1712C193.61 12.8696 193.523 12.6226 193.351 12.4304C193.182 12.2382 192.952 12.0791 192.66 11.9531C192.372 11.8272 192.045 11.7161 191.681 11.62L190.477 11.2919C189.662 11.0698 189.016 10.7434 188.538 10.3125C188.065 9.88163 187.828 9.31155 187.828 8.60227C187.828 8.01562 187.987 7.50355 188.305 7.06605C188.623 6.62855 189.054 6.28883 189.597 6.04688C190.141 5.80161 190.754 5.67898 191.437 5.67898C192.126 5.67898 192.735 5.79995 193.261 6.0419C193.792 6.28385 194.209 6.61695 194.514 7.04119C194.819 7.46212 194.978 7.94602 194.992 8.4929H193.51Z" fill="url(#paint0_linear)"/>
<defs>
<linearGradient id="paint0_linear" x1="155.8" y1="4.14286" x2="196.19" y2="21.4453" gradientUnits="userSpaceOnUse">
<stop stop-color="#4568DC"/>
<stop offset="1" stop-color="#B06AB3"/>
</linearGradient>
<clipPath id="clip0">
<rect width="147.961" height="22" fill="white"/>
</clipPath>
</defs>
</svg>
