<?xml version="1.0" standalone="no"?><!-- Generator: Gravit.io --><svg xmlns="http://www.w3.org/2000/svg" xmlns:xlink="http://www.w3.org/1999/xlink" style="isolation:isolate" viewBox="0 0 64 64" width="64" height="64"><defs><clipPath id="_clipPath_7g2aS0Acm7enBzCnv9d8yJHEFgfP2X4I"><rect width="64" height="64"/></clipPath></defs><g clip-path="url(#_clipPath_7g2aS0Acm7enBzCnv9d8yJHEFgfP2X4I)"><g><path d=" M 17.24 17.853 L 35.585 17.853 C 37.135 17.853 38.427 19.145 38.427 20.696 L 38.427 20.696 C 38.427 22.246 37.135 23.538 35.585 23.538 L 17.24 23.538 L 17.24 17.853 L 17.24 17.853 L 17.24 17.853 Z  M 17.24 40.333 L 39.719 40.333 C 41.27 40.333 42.562 41.625 42.562 43.175 L 42.562 43.175 C 42.562 44.726 41.27 46.018 39.719 46.018 L 17.24 46.018 L 17.24 40.333 L 17.24 40.333 Z  M 9.94 57.645 C 9.94 57.645 9.94 6.29 9.94 6.29 L 28.027 6.29 C 33.647 6.29 38.363 7.518 42.303 10.037 C 46.179 12.492 49.151 15.722 51.088 19.662 C 53.026 23.602 54.06 27.737 54.06 32 C 54.06 36.328 53.091 40.462 51.088 44.338 C 49.151 48.278 46.179 51.444 42.303 53.963 C 38.427 56.418 33.647 57.71 28.027 57.71 L 13.299 57.71 C 12.33 57.645 10.005 57.645 9.94 57.645 L 9.94 57.645 L 9.94 57.645 Z  M 17.24 29.093 L 29.965 29.093 C 31.516 29.093 32.807 30.385 32.807 31.935 L 32.807 31.935 C 32.807 33.486 31.516 34.778 29.965 34.778 L 17.24 34.778 L 17.24 29.093 Z " fill-rule="evenodd" fill="rgb(255,255,255)"/></g></g></svg>