<svg width="781" height="87" viewBox="0 0 781 87" fill="none" xmlns="http://www.w3.org/2000/svg">
<path d="M615.775 67H601.011V21.3933H616.242C620.711 21.3933 624.549 22.3063 627.755 24.1324C630.962 25.9436 633.419 28.549 635.126 31.9487C636.849 35.3336 637.71 39.394 637.71 44.1298C637.71 48.8805 636.841 52.9632 635.104 56.3777C633.382 59.7923 630.888 62.42 627.622 64.2609C624.356 66.087 620.407 67 615.775 67ZM607.892 60.9874H615.396C618.87 60.9874 621.758 60.3342 624.059 59.0277C626.36 57.7064 628.082 55.7987 629.225 53.3046C630.368 50.7957 630.94 47.7374 630.94 44.1298C630.94 40.552 630.368 37.516 629.225 35.0219C628.097 32.5277 626.412 30.6349 624.17 29.3433C621.928 28.0517 619.145 27.4059 615.819 27.4059H607.892V60.9874ZM688.391 44.1966C688.391 49.0661 687.5 53.2527 685.719 56.7563C683.937 60.2451 681.495 62.9322 678.393 64.8176C675.305 66.6882 671.793 67.6235 667.859 67.6235C663.91 67.6235 660.384 66.6882 657.282 64.8176C654.194 62.9322 651.759 60.2377 649.977 56.734C648.196 53.2304 647.305 49.0513 647.305 44.1966C647.305 39.3272 648.196 35.148 649.977 31.6592C651.759 28.1556 654.194 25.4685 657.282 23.5979C660.384 21.7125 663.91 20.7697 667.859 20.7697C671.793 20.7697 675.305 21.7125 678.393 23.5979C681.495 25.4685 683.937 28.1556 685.719 31.6592C687.5 35.148 688.391 39.3272 688.391 44.1966ZM681.577 44.1966C681.577 40.4852 680.976 37.3601 679.773 34.8214C678.586 32.2679 676.952 30.338 674.874 29.0315C672.81 27.7102 670.472 27.0496 667.859 27.0496C665.232 27.0496 662.886 27.7102 660.822 29.0315C658.759 30.338 657.126 32.2679 655.923 34.8214C654.736 37.3601 654.142 40.4852 654.142 44.1966C654.142 47.9081 654.736 51.0406 655.923 53.5941C657.126 56.1328 658.759 58.0627 660.822 59.384C662.886 60.6905 665.232 61.3437 667.859 61.3437C670.472 61.3437 672.81 60.6905 674.874 59.384C676.952 58.0627 678.586 56.1328 679.773 53.5941C680.976 51.0406 681.577 47.9081 681.577 44.1966ZM737.358 36.2244H730.41C730.143 34.7398 729.646 33.4333 728.918 32.305C728.191 31.1768 727.3 30.2192 726.246 29.4324C725.192 28.6455 724.012 28.0517 722.705 27.6508C721.414 27.25 720.04 27.0496 718.585 27.0496C715.958 27.0496 713.605 27.7102 711.526 29.0315C709.463 30.3528 707.83 32.2902 706.627 34.8437C705.439 37.3972 704.846 40.5148 704.846 44.1966C704.846 47.9081 705.439 51.0406 706.627 53.5941C707.83 56.1476 709.47 58.0776 711.548 59.384C713.627 60.6905 715.965 61.3437 718.563 61.3437C720.003 61.3437 721.369 61.1507 722.661 60.7647C723.967 60.3639 725.147 59.7775 726.201 59.0055C727.255 58.2335 728.146 57.2908 728.874 56.1773C729.616 55.049 730.128 53.7574 730.41 52.3025L737.358 52.3248C736.987 54.5665 736.267 56.6301 735.198 58.5155C734.144 60.3861 732.786 62.0043 731.123 63.3702C729.475 64.7211 727.589 65.7678 725.467 66.5101C723.344 67.2524 721.028 67.6235 718.519 67.6235C714.57 67.6235 711.051 66.6882 707.963 64.8176C704.875 62.9322 702.44 60.2377 700.659 56.734C698.892 53.2304 698.009 49.0513 698.009 44.1966C698.009 39.3272 698.9 35.148 700.681 31.6592C702.463 28.1556 704.897 25.4685 707.985 23.5979C711.073 21.7125 714.584 20.7697 718.519 20.7697C720.939 20.7697 723.195 21.1186 725.288 21.8164C727.396 22.4993 729.289 23.5088 730.967 24.845C732.645 26.1662 734.033 27.7845 735.131 29.6996C736.23 31.5999 736.972 33.7748 737.358 36.2244ZM772.975 33.3739C772.737 31.2658 771.757 29.6328 770.035 28.4748C768.313 27.302 766.146 26.7155 763.533 26.7155C761.662 26.7155 760.044 27.0125 758.678 27.6063C757.312 28.1853 756.251 28.987 755.494 30.0113C754.751 31.0209 754.38 32.1714 754.38 33.463C754.38 34.5468 754.633 35.4821 755.137 36.2689C755.657 37.0557 756.332 37.7164 757.164 38.2508C758.01 38.7704 758.916 39.2084 759.881 39.5647C760.846 39.9062 761.774 40.1882 762.664 40.4109L767.118 41.5689C768.573 41.9252 770.065 42.4077 771.594 43.0164C773.123 43.6251 774.541 44.4268 775.847 45.4214C777.154 46.4161 778.208 47.6483 779.01 49.1181C779.826 50.5878 780.234 52.3471 780.234 54.3958C780.234 56.979 779.566 59.2727 778.23 61.2769C776.909 63.2811 774.986 64.8622 772.463 66.0202C769.954 67.1782 766.918 67.7571 763.355 67.7571C759.94 67.7571 756.986 67.2153 754.492 66.1315C751.997 65.0478 750.045 63.5112 748.635 61.5218C747.225 59.5176 746.445 57.1423 746.297 54.3958H753.2C753.334 56.0437 753.868 57.4169 754.803 58.5155C755.754 59.5993 756.963 60.4084 758.433 60.9429C759.918 61.4625 761.543 61.7223 763.31 61.7223C765.255 61.7223 766.984 61.4179 768.499 60.8092C770.028 60.1857 771.23 59.3247 772.106 58.2261C772.982 57.1126 773.42 55.8136 773.42 54.329C773.42 52.978 773.034 51.872 772.262 51.0109C771.505 50.1499 770.473 49.4373 769.167 48.8731C767.875 48.309 766.413 47.8116 764.78 47.3811L759.391 45.9113C755.739 44.9167 752.844 43.4543 750.706 41.5244C748.583 39.5944 747.521 37.0409 747.521 33.8639C747.521 31.2361 748.234 28.9424 749.659 26.9828C751.084 25.0231 753.014 23.5014 755.449 22.4176C757.884 21.319 760.63 20.7697 763.689 20.7697C766.777 20.7697 769.501 21.3116 771.861 22.3954C774.237 23.4791 776.107 24.9712 777.473 26.8714C778.839 28.7569 779.552 30.9244 779.611 33.3739H772.975Z" fill="url(#paint0_linear)"/>
<path d="M0.00833893 80.0722V0.00836182H28.2083C36.9706 0.00836182 44.324 1.92127 50.4675 5.8491C56.5103 9.67612 61.1429 14.7116 64.1649 20.8548C67.1857 26.9979 68.7975 33.4435 68.7975 40.0907C68.7975 46.8387 67.2865 53.283 64.1649 59.3266C61.1429 65.4697 56.5103 70.4044 50.4675 74.3323C44.4236 78.1593 36.9706 80.173 28.2083 80.173H5.24581C3.73481 80.0722 0.109152 80.0722 0.00833893 80.0722Z" fill="#080808"/>
<path d="M11.3894 18.0358H39.9926C42.4097 18.0358 44.4236 20.0495 44.4236 22.4665C44.4236 24.8834 42.4097 26.8983 39.9926 26.8983H11.3894V18.0358Z" fill="#3DDC97"/>
<path d="M11.3893 53.0826H46.4386C48.8557 53.0826 50.8696 55.0963 50.8696 57.5132C50.8696 59.9302 48.8557 61.9451 46.4386 61.9451H11.3893V53.0826Z" fill="#F12A1F"/>
<path d="M11.3893 35.5592H31.2303C33.6474 35.5592 35.6612 37.5729 35.6612 39.9899C35.6612 42.4068 33.6474 44.4217 31.2303 44.4217H11.3893V35.5592Z" fill="#FFB400"/>
<path d="M141.888 5.15613V66.0847H135.214L134.927 58.2749C133.225 61.1128 130.953 63.2431 128.111 64.8072C125.27 66.2262 122.145 67.079 118.878 67.079C112.487 67.079 107.374 65.0903 103.254 61.1128C99.1386 57.139 97.1497 51.7426 97.1497 44.782C97.1497 37.8214 99.1386 32.2835 103.254 28.4512C107.374 24.4737 112.487 22.6265 118.878 22.6265C122.145 22.6265 125.27 23.3378 128.253 24.8983C131.236 26.4624 133.508 28.4512 134.927 31.2891V5.15613H141.888ZM119.307 28.8758C114.901 28.8758 111.351 30.2947 108.509 32.9948C105.671 35.6912 104.249 39.5271 104.249 44.4989C104.249 49.3256 105.671 53.1615 108.509 55.8579C111.351 58.6995 115.046 59.9769 119.307 59.9769C123.709 59.9769 127.259 58.558 130.242 55.5749C133.084 52.7369 134.644 48.901 134.644 44.2122C134.644 39.6686 133.225 35.9779 130.242 33.1363C127.117 30.4363 123.568 28.8758 119.307 28.8758Z" fill="#080808"/>
<path d="M193.305 59.2692C191.175 61.8241 188.475 63.6713 185.067 64.9487C181.659 66.2261 178.247 66.9374 174.698 66.9374C168.023 66.9374 162.485 64.9487 158.366 60.8297C154.246 56.7107 152.116 51.3143 152.116 44.4989C152.116 37.9665 154.246 32.7116 158.366 28.4511C162.485 24.1869 167.882 22.2018 174.415 22.2018C181.372 22.2018 186.914 24.3321 191.033 28.7342C195.149 33.1362 196.713 39.244 196.002 47.482H159.502C159.926 51.3143 161.49 54.4389 164.47 56.8522C167.312 59.2692 170.861 60.4051 175.126 60.4051C177.681 60.4051 180.236 59.9769 182.795 58.9825C185.35 57.9881 187.339 56.7107 188.758 55.0087L193.305 59.2692ZM189.186 41.5158C189.044 37.3968 187.622 34.2721 185.067 32.0003C182.512 29.7285 178.958 28.5926 174.698 28.5926C170.861 28.5926 167.453 29.7285 164.615 32.0003C161.774 34.2721 160.068 37.3968 159.502 41.3742L189.186 41.5158Z" fill="#080808"/>
<path d="M244.294 59.2692C242.163 61.8241 239.463 63.6713 236.055 64.9487C232.647 66.2261 229.239 66.9374 225.686 66.9374C219.012 66.9374 213.473 64.9487 209.354 60.8297C205.235 56.7107 203.104 51.3143 203.104 44.4989C203.104 37.9665 205.235 32.7116 209.354 28.4511C213.473 24.1869 218.87 22.2018 225.403 22.2018C232.364 22.2018 237.902 24.3321 242.022 28.7342C246.141 33.1362 247.702 39.244 246.994 47.482H210.49C210.915 51.3143 212.479 54.4389 215.462 56.8522C218.3 59.2692 221.853 60.4051 226.114 60.4051C228.669 60.4051 231.228 59.9769 233.783 58.9825C236.338 57.9881 238.327 56.7107 239.75 55.0087L244.294 59.2692ZM240.174 41.5158C240.033 37.3968 238.614 34.2721 236.055 32.0003C233.5 29.7285 229.947 28.5926 225.686 28.5926C221.854 28.5926 218.446 29.7285 215.604 32.0003C212.762 34.2721 211.06 37.3968 210.49 41.3742L240.174 41.5158Z" fill="#080808"/>
<path d="M256.793 23.3378H263.609L263.896 31.5721C265.598 28.7342 267.87 26.4624 270.853 24.8983C273.836 23.3378 276.961 22.4849 280.369 22.4849C286.619 22.6265 291.732 24.7567 295.71 28.7342C299.684 32.8532 301.673 38.1081 301.673 44.6404C301.673 51.3143 299.684 56.7107 295.569 60.8297C291.449 64.9487 286.336 66.9375 279.803 66.9375C276.536 66.9375 273.412 66.2262 270.428 64.8072C267.445 63.3882 265.173 61.1128 263.609 58.2749V86.2514H256.651V23.3378H256.793ZM290.455 56.1446C293.293 53.303 294.716 49.6123 294.716 44.782C294.716 40.0968 293.293 36.2609 290.455 33.5609C287.613 30.8645 284.064 29.4419 279.516 29.4419C274.972 29.4419 271.423 30.8645 268.581 33.8476C265.739 36.6855 264.462 40.3799 264.462 44.9235C264.462 49.3256 265.881 53.02 268.723 55.8579C271.564 58.841 275.114 60.2636 279.516 60.4051C284.064 60.4051 287.613 58.9825 290.455 56.1446Z" fill="#080808"/>
<path d="M339.883 32.7117C336.758 29.8701 332.78 28.5927 327.808 28.5927C324.683 28.5927 322.128 29.0173 320.139 30.1532C318.15 31.2891 317.156 32.8532 317.156 34.8419C317.156 38.2496 320.85 40.3799 327.808 41.2327C329.797 41.5158 331.502 41.6573 332.78 41.9404C334.057 42.2271 335.622 42.6517 337.465 43.2215C339.313 43.7876 340.732 44.4989 341.868 45.4933C343.004 46.3425 343.857 47.6235 344.71 49.0425C345.562 50.603 345.845 52.3087 345.845 54.4389C345.845 58.5579 343.998 61.6826 340.59 63.9544C337.182 66.2262 332.921 67.3621 327.808 67.3621C319.286 67.3621 312.895 64.6657 308.634 59.2692L312.753 54.2974C316.303 58.6995 321.417 60.9713 328.091 60.9713C330.933 60.9713 333.488 60.4051 335.622 59.4108C337.752 58.4164 338.888 56.7107 339.03 54.2974C339.03 52.1671 338.177 50.603 336.046 49.6123C333.916 48.6179 331.216 47.9066 327.383 47.482C324.966 47.1953 322.836 46.7707 321.133 46.3425C319.428 45.9179 317.58 45.2066 315.878 44.3574C314.031 43.5045 312.753 42.2271 311.759 40.8045C310.764 39.244 310.34 37.3968 310.34 35.125C310.34 32.2834 311.189 29.7286 313.036 27.8814C314.884 25.8926 317.014 24.4737 319.569 23.7624C322.128 22.9095 324.824 22.6265 327.808 22.6265C334.482 22.6265 339.883 24.4737 344.143 28.306L339.883 32.7117Z" fill="#080808"/>
<path d="M359.198 28.4511C363.459 24.1869 368.714 22.2018 375.105 22.2018C381.638 22.2018 387.035 24.3321 391.154 28.4511C395.273 32.5665 397.404 38.1081 397.404 44.7819C397.404 51.3143 395.273 56.5692 391.154 60.6882C386.893 64.8072 381.638 66.9374 375.105 66.9374C368.714 66.9374 363.317 64.8072 359.198 60.6882C354.937 56.5692 352.948 51.1727 352.948 44.7819C352.948 38.1081 354.937 32.7116 359.198 28.4511ZM386.182 33.1362C383.344 30.1531 379.649 28.5926 375.247 28.5926C370.844 28.5926 367.15 30.0116 364.312 32.9947C361.47 35.9778 360.051 39.8101 360.051 44.4989C360.051 49.0425 361.47 52.7369 364.312 55.5748C367.15 58.4164 370.844 59.9769 375.247 59.9769C379.649 59.9769 383.344 58.5579 386.182 55.5748C389.024 52.7369 390.588 48.9009 390.588 44.4989C390.443 39.9516 389.024 36.1193 386.182 33.1362Z" fill="#080808"/>
<path d="M441.148 66.0847L440.865 59.2693C437.174 64.2375 432.202 66.6544 425.952 66.796C420.414 66.796 415.866 64.9488 412.458 61.3995C409.05 57.8467 407.344 53.02 407.344 46.7707V23.0511H414.447V46.7707C414.447 50.8897 415.583 54.1559 417.855 56.5692C420.131 58.9826 423.397 60.1221 427.371 60.1221C431.207 60.1221 434.474 58.6995 436.887 56.0031C439.304 53.3031 440.582 50.0369 440.582 46.0594V23.0511H447.684V66.0847H441.148Z" fill="#080808"/>
<path d="M467.425 23.0511L467.994 29.4419C470.549 24.7568 474.952 22.3435 481.201 22.3435C485.038 22.2019 488.304 23.3378 491.146 25.6096L487.879 31.7174C485.607 30.1532 483.19 29.3004 480.352 29.3004C476.799 29.3004 473.816 30.5815 471.402 32.8533C468.989 35.2666 467.711 38.2497 467.711 42.082V65.9432H460.609V23.0511H467.425Z" fill="#080808"/>
<path d="M532.335 60.2636C527.932 64.6656 522.532 66.9374 516.286 66.9374C509.895 66.9374 504.639 64.9487 500.233 60.9712C495.973 56.9974 493.842 51.5973 493.842 44.6404C493.842 37.6798 495.973 32.2834 500.233 28.306C504.494 24.3321 509.895 22.3434 516.286 22.3434C522.249 22.3434 527.504 24.4737 531.907 28.7342L527.363 33.4193C524.379 30.5814 520.83 29.0173 516.428 29.0173C512.025 29.0173 508.33 30.4362 505.489 33.2778C502.509 36.1193 501.086 39.8101 501.086 44.4989C501.086 49.3255 502.509 53.1615 505.489 55.8579C508.472 58.5579 512.025 59.9769 516.428 59.9769C520.971 59.9769 524.666 58.4164 527.646 55.4333L532.335 60.2636Z" fill="#080808"/>
<path d="M578.921 59.2692C576.791 61.8241 574.09 63.6713 570.682 64.9487C567.274 66.2261 563.867 66.9374 560.313 66.9374C553.639 66.9374 548.101 64.9487 543.981 60.8297C539.862 56.7107 537.732 51.3143 537.732 44.4989C537.732 37.9665 539.862 32.7116 543.981 28.4511C548.101 24.1869 553.498 22.2018 560.03 22.2018C566.991 22.2018 572.53 24.3321 576.649 28.7342C580.768 33.1362 582.329 39.244 581.618 47.482H545.117C545.542 51.3143 547.106 54.4389 550.09 56.8522C552.928 59.2692 556.481 60.4051 560.742 60.4051C563.297 60.4051 565.855 59.9769 568.41 58.9825C570.965 57.9881 572.954 56.7107 574.377 55.0087L578.921 59.2692ZM574.802 41.5158C574.66 37.3968 573.241 34.2721 570.682 32.0003C568.127 29.7285 564.574 28.5926 560.313 28.5926C556.481 28.5926 553.069 29.7285 550.231 32.0003C547.389 34.2721 545.684 37.3968 545.117 41.3742L574.802 41.5158Z" fill="#080808"/>
<defs>
<linearGradient id="paint0_linear" x1="603.92" y1="13.1429" x2="782.855" y2="88.0927" gradientUnits="userSpaceOnUse">
<stop stop-color="#4568DC"/>
<stop offset="1" stop-color="#B06AB3"/>
</linearGradient>
</defs>
</svg>
