<svg width="781" height="87" viewBox="0 0 781 87" fill="none" xmlns="http://www.w3.org/2000/svg">
<path d="M615.775 67H601.011V21.3933H616.242C620.711 21.3933 624.549 22.3063 627.755 24.1324C630.962 25.9436 633.419 28.549 635.126 31.9487C636.849 35.3336 637.71 39.394 637.71 44.1298C637.71 48.8805 636.841 52.9632 635.104 56.3777C633.382 59.7923 630.888 62.42 627.622 64.2609C624.356 66.087 620.407 67 615.775 67ZM607.892 60.9874H615.396C618.87 60.9874 621.758 60.3342 624.059 59.0277C626.36 57.7064 628.082 55.7987 629.225 53.3046C630.368 50.7957 630.94 47.7374 630.94 44.1298C630.94 40.552 630.368 37.516 629.225 35.0219C628.097 32.5277 626.412 30.6349 624.17 29.3433C621.928 28.0517 619.145 27.4059 615.819 27.4059H607.892V60.9874ZM688.391 44.1966C688.391 49.0661 687.5 53.2527 685.719 56.7563C683.937 60.2451 681.495 62.9322 678.393 64.8176C675.305 66.6882 671.793 67.6235 667.859 67.6235C663.91 67.6235 660.384 66.6882 657.282 64.8176C654.194 62.9322 651.759 60.2377 649.977 56.734C648.196 53.2304 647.305 49.0513 647.305 44.1966C647.305 39.3272 648.196 35.148 649.977 31.6592C651.759 28.1556 654.194 25.4685 657.282 23.5979C660.384 21.7125 663.91 20.7697 667.859 20.7697C671.793 20.7697 675.305 21.7125 678.393 23.5979C681.495 25.4685 683.937 28.1556 685.719 31.6592C687.5 35.148 688.391 39.3272 688.391 44.1966ZM681.577 44.1966C681.577 40.4852 680.976 37.3601 679.773 34.8214C678.586 32.2679 676.952 30.338 674.874 29.0315C672.81 27.7102 670.472 27.0496 667.859 27.0496C665.232 27.0496 662.886 27.7102 660.822 29.0315C658.759 30.338 657.126 32.2679 655.923 34.8214C654.736 37.3601 654.142 40.4852 654.142 44.1966C654.142 47.9081 654.736 51.0406 655.923 53.5941C657.126 56.1328 658.759 58.0627 660.822 59.384C662.886 60.6905 665.232 61.3437 667.859 61.3437C670.472 61.3437 672.81 60.6905 674.874 59.384C676.952 58.0627 678.586 56.1328 679.773 53.5941C680.976 51.0406 681.577 47.9081 681.577 44.1966ZM737.358 36.2244H730.41C730.143 34.7398 729.646 33.4333 728.918 32.305C728.191 31.1768 727.3 30.2192 726.246 29.4324C725.192 28.6455 724.012 28.0517 722.705 27.6508C721.414 27.25 720.04 27.0496 718.585 27.0496C715.958 27.0496 713.605 27.7102 711.526 29.0315C709.463 30.3528 707.83 32.2902 706.627 34.8437C705.439 37.3972 704.846 40.5148 704.846 44.1966C704.846 47.9081 705.439 51.0406 706.627 53.5941C707.83 56.1476 709.47 58.0776 711.548 59.384C713.627 60.6905 715.965 61.3437 718.563 61.3437C720.003 61.3437 721.369 61.1507 722.661 60.7647C723.967 60.3639 725.147 59.7775 726.201 59.0055C727.255 58.2335 728.146 57.2908 728.874 56.1773C729.616 55.049 730.128 53.7574 730.41 52.3025L737.358 52.3248C736.987 54.5665 736.267 56.6301 735.198 58.5155C734.144 60.3861 732.786 62.0043 731.123 63.3702C729.475 64.7211 727.589 65.7678 725.467 66.5101C723.344 67.2524 721.028 67.6235 718.519 67.6235C714.57 67.6235 711.051 66.6882 707.963 64.8176C704.875 62.9322 702.44 60.2377 700.659 56.734C698.892 53.2304 698.009 49.0513 698.009 44.1966C698.009 39.3272 698.9 35.148 700.681 31.6592C702.463 28.1556 704.897 25.4685 707.985 23.5979C711.073 21.7125 714.584 20.7697 718.519 20.7697C720.939 20.7697 723.195 21.1186 725.288 21.8164C727.396 22.4993 729.289 23.5088 730.967 24.845C732.645 26.1662 734.033 27.7845 735.131 29.6996C736.23 31.5999 736.972 33.7748 737.358 36.2244ZM772.975 33.3739C772.737 31.2658 771.757 29.6328 770.035 28.4748C768.313 27.302 766.146 26.7155 763.533 26.7155C761.662 26.7155 760.044 27.0125 758.678 27.6063C757.312 28.1853 756.251 28.987 755.494 30.0113C754.751 31.0209 754.38 32.1714 754.38 33.463C754.38 34.5468 754.633 35.4821 755.137 36.2689C755.657 37.0557 756.332 37.7164 757.164 38.2508C758.01 38.7704 758.916 39.2084 759.881 39.5647C760.846 39.9062 761.774 40.1882 762.664 40.4109L767.118 41.5689C768.573 41.9252 770.065 42.4077 771.594 43.0164C773.123 43.6251 774.541 44.4268 775.847 45.4214C777.154 46.4161 778.208 47.6483 779.01 49.1181C779.826 50.5878 780.234 52.3471 780.234 54.3958C780.234 56.979 779.566 59.2727 778.23 61.2769C776.909 63.2811 774.986 64.8622 772.463 66.0202C769.954 67.1782 766.918 67.7571 763.355 67.7571C759.94 67.7571 756.986 67.2153 754.492 66.1315C751.997 65.0478 750.045 63.5112 748.635 61.5218C747.225 59.5176 746.445 57.1423 746.297 54.3958H753.2C753.334 56.0437 753.868 57.4169 754.803 58.5155C755.754 59.5993 756.963 60.4084 758.433 60.9429C759.918 61.4625 761.543 61.7223 763.31 61.7223C765.255 61.7223 766.984 61.4179 768.499 60.8092C770.028 60.1857 771.23 59.3247 772.106 58.2261C772.982 57.1126 773.42 55.8136 773.42 54.329C773.42 52.978 773.034 51.872 772.262 51.0109C771.505 50.1499 770.473 49.4373 769.167 48.8731C767.875 48.309 766.413 47.8116 764.78 47.3811L759.391 45.9113C755.739 44.9167 752.844 43.4543 750.706 41.5244C748.583 39.5944 747.521 37.0409 747.521 33.8639C747.521 31.2361 748.234 28.9424 749.659 26.9828C751.084 25.0231 753.014 23.5014 755.449 22.4176C757.884 21.319 760.63 20.7697 763.689 20.7697C766.777 20.7697 769.501 21.3116 771.861 22.3954C774.237 23.4791 776.107 24.9712 777.473 26.8714C778.839 28.7569 779.552 30.9244 779.611 33.3739H772.975Z" fill="url(#paint0_linear)"/>
<path fill-rule="evenodd" clip-rule="evenodd" d="M0 0V80.0638C0.100813 80.0638 3.72647 80.0638 5.23747 80.1646H28.2C36.9623 80.1646 44.4152 78.1509 50.4592 74.3239C56.502 70.3961 61.1346 65.4614 64.1565 59.3182C67.2781 53.2747 68.7891 46.8303 68.7891 40.0823C68.7891 33.4351 67.1773 26.9896 64.1565 20.8464C61.1346 14.7033 56.502 9.66776 50.4592 5.84074C44.3156 1.91291 36.9623 0 28.2 0H0ZM39.9843 18.0275H11.381V26.89H39.9843C42.4014 26.89 44.4152 24.8751 44.4152 22.4581C44.4152 20.0412 42.4014 18.0275 39.9843 18.0275ZM11.381 53.0743H46.4302C48.8474 53.0743 50.8612 55.088 50.8612 57.5049C50.8612 59.9219 48.8474 61.9368 46.4302 61.9368H11.381V53.0743ZM31.2219 35.5509H11.381V44.4134H31.2219C33.639 44.4134 35.6529 42.3985 35.6529 39.9816C35.6529 37.5646 33.639 35.5509 31.2219 35.5509Z" fill="white"/>
<path d="M141.88 5.14777V66.0763H135.206L134.919 58.2665C133.217 61.1045 130.945 63.2347 128.103 64.7989C125.261 66.2178 122.137 67.0707 118.87 67.0707C112.479 67.0707 107.365 65.0819 103.246 61.1045C99.1302 57.1306 97.1414 51.7342 97.1414 44.7736C97.1414 37.8131 99.1302 32.2751 103.246 28.4428C107.365 24.4653 112.479 22.6181 118.87 22.6181C122.137 22.6181 125.261 23.3294 128.245 24.8899C131.228 26.4541 133.5 28.4428 134.919 31.2807V5.14777H141.88ZM119.298 28.8674C114.892 28.8674 111.343 30.2864 108.501 32.9864C105.663 35.6828 104.24 39.5187 104.24 44.4906C104.24 49.3172 105.663 53.1532 108.501 55.8496C111.343 58.6911 115.038 59.9686 119.298 59.9686C123.701 59.9686 127.25 58.5496 130.234 55.5665C133.075 52.7286 134.636 48.8926 134.636 44.2039C134.636 39.6603 133.217 35.9695 130.234 33.1279C127.109 30.4279 123.559 28.8674 119.298 28.8674Z" fill="white"/>
<path d="M193.297 59.2608C191.166 61.8157 188.466 63.6629 185.058 64.9404C181.65 66.2178 178.239 66.9291 174.689 66.9291C168.015 66.9291 162.477 64.9404 158.357 60.8214C154.238 56.7024 152.108 51.3059 152.108 44.4905C152.108 37.9582 154.238 32.7033 158.357 28.4427C162.477 24.1786 167.873 22.1935 174.406 22.1935C181.364 22.1935 186.906 24.3237 191.025 28.7258C195.141 33.1279 196.705 39.2356 195.993 47.4736H159.493C159.918 51.3059 161.482 54.4305 164.462 56.8439C167.304 59.2608 170.853 60.3967 175.118 60.3967C177.673 60.3967 180.228 59.9685 182.786 58.9741C185.341 57.9798 187.33 56.7024 188.749 55.0003L193.297 59.2608ZM189.178 41.5074C189.036 37.3884 187.613 34.2638 185.058 31.992C182.503 29.7202 178.95 28.5843 174.689 28.5843C170.853 28.5843 167.445 29.7202 164.607 31.992C161.765 34.2638 160.059 37.3884 159.493 41.3659L189.178 41.5074Z" fill="white"/>
<path d="M244.285 59.2608C242.155 61.8157 239.455 63.6629 236.047 64.9404C232.639 66.2178 229.231 66.9291 225.678 66.9291C219.003 66.9291 213.465 64.9404 209.346 60.8214C205.226 56.7024 203.096 51.3059 203.096 44.4905C203.096 37.9582 205.226 32.7033 209.346 28.4427C213.465 24.1786 218.862 22.1935 225.395 22.1935C232.356 22.1935 237.894 24.3237 242.013 28.7258C246.133 33.1279 247.693 39.2356 246.985 47.4736H210.482C210.906 51.3059 212.471 54.4305 215.454 56.8439C218.292 59.2608 221.845 60.3967 226.106 60.3967C228.661 60.3967 231.22 59.9685 233.775 58.9741C236.33 57.9798 238.319 56.7024 239.741 55.0003L244.285 59.2608ZM240.166 41.5074C240.024 37.3884 238.605 34.2638 236.047 31.992C233.492 29.7202 229.939 28.5843 225.678 28.5843C221.845 28.5843 218.437 29.7202 215.595 31.992C212.754 34.2638 211.052 37.3884 210.482 41.3659L240.166 41.5074Z" fill="white"/>
<path d="M256.785 23.3294H263.6L263.887 31.5638C265.589 28.7258 267.861 26.454 270.845 24.8899C273.828 23.3294 276.953 22.4766 280.361 22.4766C286.61 22.6181 291.724 24.7484 295.702 28.7258C299.676 32.8448 301.665 38.0997 301.665 44.6321C301.665 51.3059 299.676 56.7024 295.56 60.8214C291.441 64.9404 286.327 66.9291 279.795 66.9291C276.528 66.9291 273.403 66.2178 270.42 64.7988C267.437 63.3799 265.165 61.1044 263.6 58.2665V86.243H256.643V23.3294H256.785ZM290.447 56.1362C293.285 53.2947 294.707 49.6039 294.707 44.7736C294.707 40.0885 293.285 36.2525 290.447 33.5525C287.605 30.8561 284.055 29.4335 279.508 29.4335C274.964 29.4335 271.414 30.8561 268.573 33.8392C265.731 36.6771 264.453 40.3715 264.453 44.9151C264.453 49.3172 265.872 53.0116 268.714 55.8495C271.556 58.8326 275.105 60.2552 279.508 60.3968C284.055 60.3968 287.605 58.9742 290.447 56.1362Z" fill="white"/>
<path d="M339.874 32.7033C336.749 29.8617 332.772 28.5843 327.799 28.5843C324.675 28.5843 322.12 29.0089 320.131 30.1448C318.142 31.2807 317.147 32.8448 317.147 34.8336C317.147 38.2413 320.842 40.3715 327.799 41.2244C329.788 41.5074 331.494 41.649 332.772 41.932C334.049 42.2187 335.613 42.6433 337.457 43.2131C339.304 43.7792 340.723 44.4905 341.859 45.4849C342.995 46.3341 343.848 47.6152 344.701 49.0341C345.554 50.5946 345.837 52.3003 345.837 54.4306C345.837 58.5496 343.99 61.6742 340.582 63.946C337.174 66.2178 332.913 67.3537 327.799 67.3537C319.278 67.3537 312.887 64.6573 308.626 59.2609L312.745 54.289C316.294 58.6911 321.408 60.9629 328.083 60.9629C330.924 60.9629 333.479 60.3968 335.613 59.4024C337.744 58.408 338.88 56.7024 339.021 54.289C339.021 52.1588 338.168 50.5946 336.038 49.6039C333.908 48.6095 331.207 47.8982 327.375 47.4736C324.958 47.1869 322.827 46.7623 321.125 46.3341C319.419 45.9095 317.572 45.1982 315.87 44.349C314.023 43.4962 312.745 42.2187 311.751 40.7961C310.756 39.2356 310.332 37.3884 310.332 35.1166C310.332 32.2751 311.181 29.7202 313.028 27.873C314.875 25.8843 317.006 24.4653 319.561 23.754C322.12 22.9012 324.816 22.6181 327.799 22.6181C334.474 22.6181 339.874 24.4653 344.135 28.2976L339.874 32.7033Z" fill="white"/>
<path d="M359.19 28.4427C363.45 24.1786 368.706 22.1935 375.097 22.1935C381.63 22.1935 387.027 24.3237 391.146 28.4427C395.265 32.5581 397.396 38.0997 397.396 44.7736C397.396 51.3059 395.265 56.5608 391.146 60.6798C386.885 64.7988 381.63 66.9291 375.097 66.9291C368.706 66.9291 363.309 64.7988 359.19 60.6798C354.929 56.5608 352.94 51.1644 352.94 44.7736C352.94 38.0997 354.929 32.7033 359.19 28.4427ZM386.174 33.1279C383.336 30.1448 379.641 28.5843 375.238 28.5843C370.836 28.5843 367.141 30.0032 364.303 32.9863C361.462 35.9694 360.042 39.8018 360.042 44.4905C360.042 49.0341 361.462 52.7285 364.303 55.5665C367.141 58.408 370.836 59.9685 375.238 59.9685C379.641 59.9685 383.336 58.5496 386.174 55.5665C389.015 52.7285 390.58 48.8926 390.58 44.4905C390.434 39.9433 389.015 36.111 386.174 33.1279Z" fill="white"/>
<path d="M441.14 66.0763L440.857 59.2609C437.166 64.2291 432.193 66.6461 425.944 66.7876C420.405 66.7876 415.858 64.9404 412.45 61.3912C409.042 57.8383 407.336 53.0116 407.336 46.7624V23.0427H414.439V46.7624C414.439 50.8814 415.575 54.1475 417.847 56.5609C420.122 58.9742 423.389 60.1137 427.363 60.1137C431.199 60.1137 434.465 58.6911 436.879 55.9947C439.296 53.2947 440.574 50.0285 440.574 46.0511V23.0427H447.676V66.0763H441.14Z" fill="white"/>
<path d="M467.416 23.0428L467.986 29.4336C470.541 24.7484 474.943 22.3351 481.193 22.3351C485.029 22.1936 488.296 23.3295 491.137 25.6013L487.871 31.709C485.599 30.1449 483.182 29.292 480.344 29.292C476.791 29.292 473.807 30.5731 471.394 32.8449C468.98 35.2582 467.703 38.2413 467.703 42.0736V65.9348H460.6V23.0428H467.416Z" fill="white"/>
<path d="M532.327 60.2552C527.924 64.6573 522.524 66.9291 516.278 66.9291C509.886 66.9291 504.631 64.9403 500.225 60.9629C495.964 56.989 493.834 51.589 493.834 44.632C493.834 37.6715 495.964 32.2751 500.225 28.2976C504.486 24.3238 509.886 22.335 516.278 22.335C522.241 22.335 527.496 24.4653 531.898 28.7258L527.354 33.411C524.371 30.573 520.822 29.0089 516.419 29.0089C512.017 29.0089 508.322 30.4279 505.48 33.2694C502.501 36.111 501.078 39.8018 501.078 44.4905C501.078 49.3172 502.501 53.1531 505.48 55.8495C508.464 58.5495 512.017 59.9685 516.419 59.9685C520.963 59.9685 524.658 58.408 527.637 55.4249L532.327 60.2552Z" fill="white"/>
<path d="M578.913 59.2608C576.782 61.8157 574.082 63.6629 570.674 64.9404C567.266 66.2178 563.858 66.9291 560.305 66.9291C553.631 66.9291 548.092 64.9404 543.973 60.8214C539.854 56.7024 537.723 51.3059 537.723 44.4905C537.723 37.9582 539.854 32.7033 543.973 28.4427C548.092 24.1786 553.489 22.1935 560.022 22.1935C566.983 22.1935 572.521 24.3237 576.641 28.7258C580.76 33.1279 582.321 39.2356 581.609 47.4736H545.109C545.534 51.3059 547.098 54.4305 550.081 56.8439C552.919 59.2608 556.473 60.3967 560.733 60.3967C563.288 60.3967 565.847 59.9685 568.402 58.9741C570.957 57.9798 572.946 56.7024 574.369 55.0003L578.913 59.2608ZM574.793 41.5074C574.652 37.3884 573.233 34.2638 570.674 31.992C568.119 29.7202 564.566 28.5843 560.305 28.5843C556.473 28.5843 553.061 29.7202 550.223 31.992C547.381 34.2638 545.675 37.3884 545.109 41.3659L574.793 41.5074Z" fill="white"/>
<defs>
<linearGradient id="paint0_linear" x1="603.92" y1="13.1429" x2="782.855" y2="88.0927" gradientUnits="userSpaceOnUse">
<stop stop-color="#4568DC"/>
<stop offset="1" stop-color="#B06AB3"/>
</linearGradient>
</defs>
</svg>
