<svg width="32" height="32" viewBox="0 0 32 32" fill="none" xmlns="http://www.w3.org/2000/svg">
<path d="M4 30.0996V1H14.2487C17.4332 1 20.1056 1.69526 22.3384 3.12284C24.5345 4.51379 26.2181 6.34396 27.3164 8.57672C28.4142 10.8095 29 13.1522 29 15.5681C29 18.0207 28.4509 20.3629 27.3164 22.5595C26.2181 24.7922 24.5345 26.5858 22.3384 28.0134C20.1418 29.4043 17.4332 30.1362 14.2487 30.1362H5.90345C5.35431 30.0996 4.03664 30.0996 4 30.0996Z" fill="#080808"/>
<path d="M8.13623 7.55219H18.5315C19.4099 7.55219 20.1418 8.28408 20.1418 9.16253C20.1418 10.041 19.4099 10.7733 18.5315 10.7733H8.13623V7.55219Z" fill="#3DDC97"/>
<path d="M8.13599 20.2901H20.8739C21.7524 20.2901 22.4843 21.022 22.4843 21.9004C22.4843 22.7789 21.7524 23.5112 20.8739 23.5112H8.13599V20.2901Z" fill="#F12A1F"/>
<path d="M8.13599 13.9211H15.3468C16.2252 13.9211 16.9571 14.653 16.9571 15.5314C16.9571 16.4099 16.2252 17.1422 15.3468 17.1422H8.13599V13.9211Z" fill="#FFB400"/>
</svg>
